<svg xmlns="http://www.w3.org/2000/svg" viewBox="0 0 360 720">
  <defs>
    <linearGradient id="bg" x1="0" y1="0" x2="1" y2="1">
      <stop offset="0" stop-color="#0ea5e9"/>
      <stop offset="1" stop-color="#6b7cff"/>
    </linearGradient>
  </defs>
  <rect width="360" height="720" fill="url(#bg)"/>
  <g fill="#fff" opacity="0.9">
    <rect x="24" y="32" width="72" height="12" rx="6"/>
    <rect x="24" y="64" width="312" height="40" rx="10"/>
    <rect x="24" y="116" width="312" height="40" rx="10"/>
    <rect x="24" y="168" width="120" height="10" rx="5"/>
    <rect x="24" y="188" width="200" height="10" rx="5"/>

    <rect x="24" y="216" width="312" height="72" rx="12" opacity="0.95"/>
    <rect x="24" y="296" width="312" height="72" rx="12"/>
    <rect x="24" y="376" width="312" height="72" rx="12"/>

    <rect x="24" y="468" width="100" height="14" rx="7"/>
    <rect x="24" y="492" width="180" height="14" rx="7"/>

    <rect x="24" y="528" width="144" height="44" rx="12"/>
    <rect x="192" y="528" width="144" height="44" rx="12"/>
  </g>
</svg>
