<svg xmlns="http://www.w3.org/2000/svg" width="1200" height="600" viewBox="0 0 1200 600">
  <defs>
    <linearGradient id="g" x1="0" y1="0" x2="1" y2="1">
      <stop offset="0" stop-color="#0ea5e9"/>
      <stop offset="1" stop-color="#6b7cff"/>
    </linearGradient>
    <filter id="shadow" x="-20%" y="-20%" width="140%" height="140%">
      <feDropShadow dx="0" dy="18" stdDeviation="24" flood-color="#000" flood-opacity=".2"/>
    </filter>
  </defs>
  <rect width="1200" height="600" fill="url(#g)"/>
  <!-- Laptop body -->
  <g filter="url(#shadow)">
    <rect x="180" y="160" width="840" height="360" rx="24" fill="#0f1522" stroke="#2b3550"/>
    <rect x="210" y="190" width="780" height="300" rx="14" fill="#0b0f17" stroke="#26324a"/>
    <rect x="150" y="520" width="900" height="22" rx="11" fill="#0f1522" stroke="#2b3550"/>
  </g>
  <!-- Screen content: Code blocks -->
  <g opacity=".9">
    <rect x="240" y="220" width="220" height="14" rx="7" fill="#38bdf8"/>
    <rect x="240" y="245" width="160" height="10" rx="5" fill="#93c5fd"/>
    <rect x="240" y="270" width="200" height="10" rx="5" fill="#93c5fd"/>
    <rect x="240" y="300" width="320" height="120" rx="12" fill="#111827"/>
    <rect x="580" y="300" width="320" height="120" rx="12" fill="#111827"/>
  </g>
  <!-- Lock icon -->
  <g transform="translate(830,210)">
    <rect x="0" y="40" width="120" height="120" rx="18" fill="#0ea5e9"/>
    <rect x="16" y="56" width="88" height="88" rx="12" fill="#e0f2fe"/>
    <path d="M60 48c-17.12 0-31 13.88-31 31v9h10v-9c0-11.6 9.4-21 21-21s21 9.4 21 21v9h10v-9c0-17.12-13.88-31-31-31Z" fill="#0ea5e9"/>
    <rect x="44" y="88" width="32" height="32" rx="8" fill="#0ea5e9"/>
  </g>
</svg>
