<svg xmlns="http://www.w3.org/2000/svg" width="160" height="160" viewBox="0 0 160 160" fill="none">
  <defs>
    <linearGradient id="g" x1="0" y1="0" x2="160" y2="160" gradientUnits="userSpaceOnUse">
      <stop stop-color="#6b7cff"/>
      <stop offset="1" stop-color="#00c39a"/>
    </linearGradient>
  </defs>
  <rect x="10" y="10" width="140" height="140" rx="28" fill="url(#g)"/>
  <path d="M48 80c0-19.882 16.118-36 36-36 7.456 0 14.38 2.255 20.096 6.107a6 6 0 1 1-6.853 9.812A24 24 0 0 0 84 56c-13.255 0-24 10.745-24 24s10.745 24 24 24c7.87 0 14.859-3.805 19.192-9.676a6 6 0 1 1 9.616 7.352C105.883 110.93 95.63 116 84 116c-19.882 0-36-16.118-36-36Z" fill="#fff"/>
  <circle cx="108" cy="80" r="8" fill="#fff"/>
</svg>
